<?xml version="1.0" standalone="no"?>
<!DOCTYPE svg PUBLIC "-//W3C//DTD SVG 20010904//EN"
 "http://www.w3.org/TR/2001/REC-SVG-20010904/DTD/svg10.dtd">
<svg version="1.0" xmlns="http://www.w3.org/2000/svg"
 width="500.000000pt" height="500.000000pt" viewBox="0 0 500.000000 500.000000"
 preserveAspectRatio="xMidYMid meet">

<g transform="translate(0.000000,500.000000) scale(0.100000,-0.100000)"
fill="#000000" stroke="none">
<path d="M2305 4489 c-303 -29 -633 -146 -897 -318 -378 -246 -662 -615 -803
-1044 -136 -412 -136 -841 0 -1252 197 -601 661 -1066 1265 -1269 774 -260
1631 -18 2158 609 714 849 598 2113 -259 2828 -397 330 -940 496 -1464 446z
m525 -38 c405 -71 743 -241 1032 -520 328 -316 516 -672 594 -1126 25 -143 25
-462 0 -609 -53 -321 -179 -621 -367 -876 -80 -109 -300 -329 -409 -409 -250
-185 -537 -308 -846 -362 -185 -33 -483 -33 -668 0 -308 54 -596 177 -846 361
-110 81 -329 301 -413 415 -189 256 -322 582 -369 901 -19 129 -16 454 6 579
54 318 170 600 352 857 81 115 336 368 451 448 298 208 614 325 988 364 95 10
384 -3 495 -23z"/>
<path d="M2401 4300 c-53 -13 -86 -52 -85 -102 2 -59 33 -84 119 -93 92 -10
123 -46 69 -81 -34 -23 -95 -9 -109 24 -8 17 -18 22 -47 22 -42 0 -45 -7 -23
-50 22 -42 63 -60 137 -60 110 0 153 45 135 140 -8 37 -46 57 -124 66 -61 7
-83 18 -83 40 0 46 86 60 118 19 15 -19 29 -25 57 -25 33 0 36 2 30 23 -21 68
-100 99 -194 77z"/>
<path d="M2791 4113 c-31 -117 -38 -158 -29 -164 21 -13 176 -49 211 -49 71 0
111 98 58 141 -16 13 -18 19 -8 19 8 0 26 9 41 21 33 26 37 86 6 114 -17 15
-195 75 -226 75 -6 0 -30 -71 -53 -157z m171 67 c44 -13 52 -23 44 -56 -7 -27
-35 -31 -98 -14 -36 10 -36 11 -25 45 11 38 21 41 79 25z m-14 -136 c24 -10
32 -19 32 -37 0 -41 -21 -50 -85 -36 -30 7 -55 15 -55 18 0 3 5 23 11 44 9 34
12 37 37 31 15 -4 42 -13 60 -20z"/>
<path d="M2046 4249 c-122 -29 -169 -141 -108 -260 23 -46 34 -57 75 -73 42
-18 54 -19 103 -8 100 21 147 75 145 166 -2 127 -97 204 -215 175z m102 -81
c30 -34 48 -110 32 -147 -19 -48 -108 -72 -146 -40 -39 32 -58 137 -31 171 34
43 111 52 145 16z"/>
<path d="M1748 4142 c-34 -20 -34 -26 -3 -81 14 -23 25 -47 25 -52 0 -9 -112
-69 -128 -69 -5 0 -19 23 -32 51 -13 28 -27 52 -32 55 -4 3 -21 -2 -38 -11
l-30 -16 77 -148 78 -149 30 15 c17 9 31 17 33 18 2 2 -10 30 -27 63 -23 46
-27 62 -18 70 17 14 118 64 122 60 1 -2 15 -28 30 -58 15 -30 29 -56 30 -58 5
-6 65 28 65 37 0 10 -136 271 -147 282 -4 4 -20 0 -35 -9z"/>
<path d="M3123 4009 l-72 -151 105 -49 c58 -27 108 -49 111 -49 4 0 17 -10 30
-22 22 -21 23 -21 57 -3 l34 19 57 -43 c55 -42 56 -44 50 -81 -6 -34 -3 -40
22 -58 l29 -21 52 164 c29 90 52 166 52 168 0 3 -20 21 -44 41 l-44 35 -133
-87 c-74 -48 -140 -91 -147 -96 -10 -6 -11 -2 -7 16 5 21 -1 27 -55 53 -34 16
-64 33 -66 37 -3 4 20 57 51 117 30 61 55 115 55 121 0 8 -50 40 -62 40 -2 0
-36 -68 -75 -151z m445 -151 c-3 -7 -13 -38 -23 -68 -10 -30 -19 -57 -21 -59
-2 -2 -21 11 -44 29 l-40 32 57 38 c62 41 78 47 71 28z"/>
<path d="M1366 3905 c-43 -15 -100 -65 -122 -107 -49 -94 31 -233 142 -246 63
-7 90 4 144 54 64 60 78 100 55 160 -9 24 -21 44 -25 44 -5 0 -21 -10 -36 -23
-23 -20 -25 -26 -15 -44 18 -35 13 -53 -23 -89 -42 -42 -82 -45 -126 -8 -66
56 -77 116 -29 163 33 33 84 42 107 19 9 -9 18 -8 38 8 34 25 34 33 4 54 -36
26 -70 30 -114 15z"/>
<path d="M2275 3765 c-164 -26 -366 -111 -513 -215 -274 -193 -470 -502 -527
-828 -20 -111 -19 -335 0 -448 70 -396 333 -744 700 -924 194 -96 342 -129
565 -130 288 0 546 85 771 255 326 245 509 614 509 1025 0 342 -115 631 -350
883 -186 199 -475 351 -733 386 -104 14 -322 12 -422 -4z m-46 -261 c86 -22
156 -53 230 -103 33 -23 62 -41 65 -41 3 0 28 16 54 35 123 88 265 129 425
123 94 -4 98 -5 129 -35 22 -22 33 -45 37 -75 l6 -43 87 -5 c67 -4 91 -10 109
-25 45 -41 49 -68 49 -339 0 -218 -2 -257 -16 -270 -8 -9 -21 -16 -28 -16 -33
0 -36 22 -36 281 0 304 4 291 -99 287 l-66 -3 -3 -277 -2 -278 -27 -6 c-51
-13 -53 -2 -53 368 0 391 10 358 -114 358 -135 0 -257 -40 -363 -121 l-53 -40
0 -498 c0 -274 3 -501 6 -504 4 -4 19 2 33 12 42 30 109 61 130 61 11 0 26
-10 32 -22 10 -19 8 -25 -14 -42 -14 -12 -53 -37 -87 -56 -36 -20 -68 -46 -76
-63 l-15 -28 -427 3 c-476 3 -462 1 -496 71 -14 31 -16 92 -16 544 0 486 1
509 20 540 28 46 67 63 148 63 l70 0 7 37 c18 98 57 122 194 123 55 0 122 -7
160 -16z m1078 -978 l28 -24 3 -221 3 -221 108 0 c109 0 131 -7 131 -40 0 -16
-429 -450 -445 -450 -16 0 -445 434 -445 450 0 33 22 40 132 40 l108 0 0 210
c0 222 7 263 47 273 10 3 82 5 160 6 136 1 143 0 170 -23z"/>
<path d="M1978 3430 c-17 -10 -18 -46 -18 -514 0 -450 2 -505 16 -510 9 -3 60
-6 114 -6 130 0 261 -40 363 -112 l27 -19 0 282 0 282 -29 -43 c-33 -50 -99
-97 -147 -106 -19 -3 -63 -5 -97 -2 -233 15 -305 333 -105 465 35 24 54 29
122 31 73 3 86 1 136 -25 38 -20 65 -43 88 -77 l32 -48 0 131 0 131 -75 49
c-106 69 -177 92 -305 97 -66 3 -112 1 -122 -6z"/>
<path d="M1726 3264 c-14 -14 -16 -74 -16 -512 0 -295 4 -503 10 -512 8 -13
59 -15 342 -17 304 -3 331 -1 313 13 -69 54 -181 84 -320 84 -71 0 -97 4 -122
20 -59 35 -58 27 -60 495 -1 237 -2 433 -3 438 0 4 -29 7 -64 7 -45 0 -69 -5
-80 -16z"/>
<path d="M2145 3141 c-84 -38 -135 -117 -135 -211 0 -171 171 -279 325 -206
61 28 87 56 116 120 49 112 -11 253 -128 303 -45 19 -131 16 -178 -6z m253
-105 c3 -25 -10 -43 -105 -138 -59 -59 -114 -108 -123 -108 -21 0 -110 88
-110 109 0 43 50 54 88 19 l24 -23 82 88 c71 77 85 87 111 85 25 -3 31 -8 33
-32z"/>
<path d="M2262 2956 l-90 -94 -35 29 c-29 24 -37 26 -46 15 -9 -11 -3 -21 30
-50 24 -20 48 -36 54 -36 17 0 207 208 200 220 -3 5 -10 10 -14 10 -4 0 -49
-42 -99 -94z"/>
<path d="M3017 2464 c-4 -4 -7 -109 -7 -234 0 -162 -3 -229 -12 -238 -7 -7
-43 -12 -92 -12 l-81 0 150 -150 c82 -82 154 -150 160 -150 6 0 78 68 160 150
l150 150 -76 0 c-44 0 -82 5 -92 13 -15 10 -17 40 -19 242 l-3 230 -116 3
c-63 1 -118 -1 -122 -4z"/>
<path d="M3760 3691 c-123 -38 -182 -149 -132 -248 24 -47 82 -100 118 -109
33 -8 94 2 111 18 10 11 8 18 -10 41 -20 25 -25 27 -50 18 -73 -28 -151 79
-102 142 27 36 79 67 113 67 67 0 115 -83 80 -140 -10 -16 -9 -23 12 -45 22
-23 25 -24 41 -9 25 22 42 79 34 111 -10 40 -61 109 -97 131 -41 24 -85 33
-118 23z"/>
<path d="M1050 3593 c-58 -72 -64 -90 -38 -106 14 -9 22 -7 39 10 l22 21 78
-61 c44 -34 79 -67 79 -73 0 -6 -7 -17 -15 -24 -14 -12 -14 -15 1 -31 10 -11
22 -19 28 -19 6 0 37 34 69 75 l58 76 -23 19 c-23 19 -23 19 -43 -5 l-20 -24
-56 42 c-119 90 -112 82 -93 112 16 24 16 26 -2 40 -10 8 -22 15 -26 15 -3 0
-30 -30 -58 -67z"/>
<path d="M910 3401 c-5 -11 -10 -24 -10 -30 0 -6 53 -38 118 -71 l117 -59
-150 6 -150 6 -27 -57 -28 -56 150 -75 150 -75 16 31 c8 17 14 32 12 34 -2 1
-54 28 -115 59 -62 31 -113 57 -113 59 0 1 65 1 144 -1 l145 -3 25 50 c15 28
26 53 26 56 0 6 -276 145 -290 145 -5 0 -14 -9 -20 -19z"/>
<path d="M3921 3330 c-77 -38 -141 -72 -141 -75 0 -3 7 -19 15 -35 15 -29 15
-30 49 -13 36 17 106 11 106 -8 0 -6 -16 -38 -35 -70 -40 -69 -41 -72 -16
-118 l18 -34 57 101 c31 56 58 102 60 102 1 0 40 -11 86 -25 46 -14 85 -23 87
-21 3 2 -5 22 -16 44 -20 38 -23 40 -118 64 l-98 25 65 32 c36 19 66 35 68 36
6 5 -28 65 -37 65 -5 0 -72 -31 -150 -70z"/>
<path d="M831 2343 c-12 -45 -42 -73 -78 -73 -12 0 -25 -4 -28 -10 -3 -5 3
-10 15 -10 43 0 79 -28 91 -73 9 -29 14 -36 16 -22 12 61 44 95 88 95 8 0 15
5 15 10 0 6 -11 10 -25 10 -31 0 -62 30 -71 67 -3 16 -7 33 -9 38 -1 6 -8 -9
-14 -32z"/>
<path d="M4151 2362 c-1 -26 -18 -63 -35 -75 -6 -4 -29 -12 -51 -19 l-40 -11
39 -9 c53 -11 75 -33 83 -82 l6 -40 14 46 c15 52 30 68 76 78 27 6 29 8 12 14
-53 19 -71 34 -87 76 -12 32 -17 38 -17 22z"/>
<path d="M1471 1148 c-23 -33 -39 -63 -35 -67 3 -3 14 5 23 18 9 14 24 34 33
45 16 20 17 19 11 -31 -3 -29 -3 -53 1 -53 4 0 24 9 46 20 22 11 42 20 45 20
4 0 -8 -20 -26 -45 -18 -25 -29 -48 -26 -52 4 -3 8 -4 10 -2 39 52 77 111 77
119 0 16 -22 11 -68 -15 l-44 -25 7 59 c4 33 3 61 -3 64 -5 4 -28 -21 -51 -55z"/>
<path d="M3440 1164 c0 -25 31 -128 42 -139 7 -7 9 -1 6 17 -7 36 35 67 63 50
10 -7 20 -8 23 -3 5 8 -111 91 -127 91 -4 0 -7 -7 -7 -16z m55 -33 c18 -13 21
-21 12 -30 -15 -15 -37 -14 -37 3 0 8 -3 21 -6 30 -8 21 3 20 31 -3z"/>
<path d="M3260 1105 c-7 -9 -10 -18 -7 -21 3 -3 10 4 17 15 13 25 8 27 -10 6z"/>
<path d="M3260 1065 c0 -10 48 -99 64 -120 26 -34 18 -3 -16 62 -28 54 -48 77
-48 58z"/>
<path d="M1730 990 c-16 -33 -30 -64 -30 -69 0 -10 80 -44 87 -37 3 3 -10 13
-30 22 -32 15 -34 19 -24 41 7 16 16 22 26 17 37 -15 53 -13 24 3 -37 19 -38
22 -20 47 13 17 15 17 45 2 18 -9 32 -13 32 -8 0 7 -62 42 -75 42 -3 0 -18
-27 -35 -60z"/>
<path d="M3065 978 c-51 -27 -60 -84 -20 -123 29 -29 68 -32 93 -7 10 10 24
16 30 14 15 -5 15 -3 1 37 -12 33 -13 34 -46 25 -31 -9 -29 -22 2 -16 27 5 32
-7 15 -39 -24 -44 -100 -11 -100 43 0 41 57 77 75 48 4 -6 11 -7 17 -4 7 5 4
12 -7 21 -22 16 -33 16 -60 1z"/>
<path d="M1978 948 c26 -13 26 -12 7 -74 -8 -27 -15 -56 -15 -63 0 -29 18 4
34 62 16 55 18 57 44 51 37 -9 17 10 -27 25 -44 14 -75 14 -43 -1z"/>
<path d="M2782 900 c-66 -27 -41 -150 32 -150 68 0 101 86 51 135 -25 26 -45
30 -83 15z m70 -27 c25 -22 24 -79 -1 -93 -31 -16 -59 -12 -75 12 -43 61 22
130 76 81z"/>
<path d="M2210 872 c-37 -37 -39 -74 -5 -107 31 -32 74 -33 103 -2 42 45 20
118 -40 133 -22 5 -33 0 -58 -24z m84 -8 c18 -18 21 -56 6 -85 -7 -13 -21 -19
-45 -19 -54 0 -75 60 -35 100 24 24 53 26 74 4z"/>
<path d="M2498 873 c-15 -4 -18 -16 -18 -80 l0 -76 41 6 c52 7 79 31 79 72 0
54 -49 91 -102 78z m66 -29 c9 -8 16 -31 16 -49 0 -36 -20 -55 -59 -55 -16 0
-21 6 -21 29 0 16 -3 43 -6 60 -6 29 -5 31 24 31 17 0 38 -7 46 -16z"/>
</g>
</svg>
